<svg width="50" height="50" viewBox="0 0 50 50" fill="none" xmlns="http://www.w3.org/2000/svg">
<rect x="0.5" y="0.5" width="49" height="49" rx="24.5" stroke="white" stroke-opacity="0.25"/>
<path d="M20.6409 23.7168V26.5435H24.9713C24.851 27.6862 23.7082 29.8514 20.6409 29.8514C18.0547 29.8514 15.9497 27.6862 15.9497 25.0399C15.9497 22.3936 17.9344 20.2284 20.5206 20.2284C22.0242 20.2284 23.0467 20.8299 23.588 21.3711L25.693 19.3864C24.6142 18.3627 23.256 17.6819 21.7903 17.4302C20.3245 17.1785 18.8171 17.3672 17.4586 17.9724C16.1001 18.5776 14.9516 19.5722 14.1585 20.8302C13.3653 22.0882 12.9631 23.5532 13.0027 25.0399C13.0027 29.25 16.4309 32.6782 20.6409 32.6782C25.0915 32.6782 27.9784 29.4905 27.9784 25.1602L27.8582 23.7168" fill="white"/>
<path fill-rule="evenodd" clip-rule="evenodd" d="M34.3236 25.6113V28.2877H32.5794V25.6113H29.903V23.8671H32.5794V21.1907H34.3236V23.8671H37V25.6113H34.3236Z" fill="white"/>
</svg>
