<svg width="50" height="50" viewBox="0 0 50 50" fill="none" xmlns="http://www.w3.org/2000/svg">
<rect x="0.5" y="0.5" width="49" height="49" rx="24.5" stroke="white" stroke-opacity="0.25"/>
<path d="M33.5974 20.3274L33.592 20.3067C33.1577 18.6082 31.2 16.7857 29.4022 16.4066L29.3819 16.4025C26.474 15.8658 23.5255 15.8658 20.6181 16.4025L20.5972 16.4066C18.8 16.7857 16.8423 18.6082 16.4074 20.3067L16.4026 20.3274C15.8658 22.6994 15.8658 25.1047 16.4026 27.4767L16.4074 27.4974C16.8237 29.1234 18.6356 30.8621 20.3664 31.3403V33.2363C20.3664 33.9224 21.2307 34.2595 21.7222 33.7643L23.7077 31.7676C24.1383 31.7909 24.5691 31.8039 25 31.8039C26.4638 31.8039 27.9282 31.67 29.3819 31.4016L29.4022 31.3976C31.2 31.0184 33.1577 29.1959 33.592 27.4975L33.5974 27.4767C34.1342 25.1047 34.1342 22.6994 33.5974 20.3274ZM32.0262 27.1327C31.7363 28.2408 30.2498 29.6183 29.0687 29.8728C27.5225 30.1573 25.9641 30.2789 24.4073 30.2371C24.3763 30.2363 24.3465 30.2479 24.3249 30.2694C24.104 30.4888 22.8753 31.7092 22.8753 31.7092L21.3333 33.2402C21.2206 33.3539 21.0225 33.2766 21.0225 33.1196V29.9789C21.0225 29.927 20.9842 29.8829 20.9316 29.8729C20.9313 29.8729 20.9319 29.873 20.9316 29.8729C19.7505 29.6184 18.2637 28.2407 17.9732 27.1326C17.4901 24.9887 17.4901 22.8153 17.9732 20.6713C18.2637 19.5633 19.7496 18.1857 20.9307 17.9312C23.631 17.4343 26.369 17.4343 29.0687 17.9312C30.2504 18.1857 31.7363 19.5633 32.0262 20.6713C32.5099 22.8154 32.5099 24.9887 32.0262 27.1327Z" fill="white"/>
<path d="M27.5687 28.5824C27.3871 28.5291 27.2141 28.4933 27.0534 28.4288C25.3882 27.7603 23.8556 26.898 22.6417 25.5762C21.9514 24.8245 21.411 23.9759 20.9543 23.0778C20.7377 22.6519 20.5552 22.2093 20.3691 21.7696C20.1995 21.3686 20.4494 20.9544 20.7125 20.6522C20.9594 20.3687 21.2771 20.1517 21.6211 19.9918C21.8897 19.867 22.1546 19.9389 22.3507 20.1592C22.7747 20.6353 23.1642 21.1357 23.4795 21.6876C23.6735 22.0271 23.6203 22.442 23.2688 22.673C23.1834 22.7292 23.1055 22.7951 23.026 22.8585C22.9562 22.9141 22.8905 22.9702 22.8427 23.0455C22.7552 23.1832 22.751 23.3456 22.8073 23.4953C23.2408 24.6477 23.9713 25.5437 25.1701 26.0264C25.362 26.1036 25.5546 26.1935 25.7757 26.1686C26.1458 26.1267 26.2656 25.734 26.525 25.5287C26.7785 25.3282 27.1025 25.3255 27.3755 25.4927C27.6487 25.66 27.9135 25.8395 28.1766 26.0209C28.435 26.199 28.6922 26.3733 28.9305 26.5763C29.1596 26.7715 29.2385 27.0277 29.1095 27.2926C28.8733 27.7778 28.5296 28.1815 28.0338 28.4392C27.8938 28.5119 27.7266 28.5354 27.5687 28.5824C27.7266 28.5354 27.3871 28.5291 27.5687 28.5824Z" fill="white"/>
<path d="M25.0042 19.437C27.1823 19.496 28.9712 20.8945 29.3546 22.9779C29.4199 23.3329 29.4432 23.6958 29.4722 24.0561C29.4845 24.2077 29.3958 24.3516 29.2267 24.3536C29.0521 24.3556 28.9736 24.2143 28.9622 24.0628C28.9398 23.7629 28.9242 23.4617 28.8815 23.1644C28.6561 21.5946 27.3623 20.2958 25.7472 20.0172C25.5042 19.9752 25.2555 19.9642 25.0093 19.9392C24.8537 19.9234 24.6499 19.9143 24.6154 19.7271C24.5864 19.5702 24.7233 19.4452 24.8778 19.4372C24.9198 19.435 24.962 19.4368 25.0042 19.437C27.1823 19.496 24.962 19.4368 25.0042 19.437Z" fill="white"/>
<path d="M28.3141 23.5884C28.3105 23.6148 28.3086 23.6766 28.2927 23.7349C28.2349 23.9465 27.9033 23.973 27.827 23.7594C27.8044 23.6961 27.801 23.624 27.8008 23.5558C27.8001 23.1094 27.6998 22.6636 27.4672 22.2752C27.228 21.8761 26.8627 21.5406 26.4342 21.3375C26.175 21.2148 25.8948 21.1385 25.6108 21.093C25.4867 21.0732 25.3612 21.0611 25.2365 21.0443C25.0854 21.024 25.0047 20.9308 25.0118 20.7867C25.0185 20.6516 25.1205 20.5545 25.2726 20.5628C25.7725 20.5903 26.2553 20.6948 26.6997 20.9225C27.6033 21.3855 28.1196 22.1163 28.2702 23.0922C28.277 23.1364 28.288 23.1803 28.2915 23.2246C28.3 23.3342 28.3054 23.4439 28.3141 23.5884C28.3105 23.6148 28.3054 23.4439 28.3141 23.5884Z" fill="white"/>
<path d="M26.9595 23.5374C26.7772 23.5406 26.6797 23.443 26.6609 23.2813C26.6479 23.1686 26.6375 23.0544 26.6097 22.9448C26.555 22.7288 26.4363 22.5287 26.2486 22.3963C26.1599 22.3338 26.0595 22.2883 25.9542 22.2589C25.8206 22.2216 25.6818 22.2319 25.5484 22.2002C25.4036 22.1659 25.3234 22.0524 25.3462 21.921C25.3669 21.8013 25.4872 21.708 25.6224 21.7174C26.4668 21.7764 27.0704 22.1988 27.1565 23.1606C27.1626 23.2285 27.1697 23.3002 27.1542 23.3651C27.1275 23.4763 27.0425 23.532 26.9595 23.5374C27.0425 23.532 26.7772 23.5406 26.9595 23.5374Z" fill="white"/>
</svg>
