<svg width="1910" height="1910" viewBox="0 0 1910 1910" fill="none" xmlns="http://www.w3.org/2000/svg">
<g filter="url(#filter0_f_1_7262)">
<path d="M955 624.286C867.289 624.286 783.171 659.129 721.15 721.15C659.129 783.171 624.286 867.289 624.286 955C624.286 1042.71 659.129 1126.83 721.15 1188.85C783.171 1250.87 867.289 1285.71 955 1285.71C1042.71 1285.71 1126.83 1250.87 1188.85 1188.85C1250.87 1126.83 1285.71 1042.71 1285.71 955C1285.71 867.289 1250.87 783.171 1188.85 721.15C1126.83 659.129 1042.71 624.286 955 624.286ZM1138.59 974.036C1134.52 979.39 1128.88 983.338 1122.45 985.329L1070.51 1002.75C1054.63 1008.18 1040.19 1017.11 1028.24 1028.89C1016.37 1040.76 1007.43 1055.23 1002.11 1071.15L984.361 1123.1C981.973 1128.96 978.077 1134.08 973.068 1137.94C967.711 1141.82 961.291 1143.96 954.677 1144.07C948.03 1144.17 941.546 1142.01 936.286 1137.94C930.921 1134.09 926.866 1128.68 924.671 1122.45L907.571 1070.51C902.256 1054.53 893.271 1040.02 881.336 1028.14C869.402 1016.26 854.849 1007.35 838.847 1002.11L787.223 985.006C780.994 982.811 775.588 978.757 771.736 973.391C767.714 968.108 765.558 961.64 765.606 955C765.649 948.276 767.792 941.733 771.736 936.286C775.442 931.056 780.773 927.199 786.9 925.316L838.847 907.893C854.904 902.456 869.559 893.53 881.759 881.759C893.697 869.692 902.634 854.979 907.893 838.847L925.316 787.868C927.25 781.764 930.956 776.373 935.964 772.381C941.11 768.036 947.619 765.638 954.355 765.606C960.756 765.496 967.046 767.293 972.423 770.768C978.101 774.298 982.421 779.641 984.684 785.933L1002.11 838.524C1007.53 854.753 1016.56 869.531 1028.56 881.759C1040.69 893.465 1055.22 902.384 1071.15 907.893L1123.1 925.962C1129.27 927.929 1134.61 931.904 1138.26 937.254C1142.03 942.649 1144.06 949.066 1144.07 955.645C1144.04 962.163 1142.14 968.551 1138.59 974.036Z" fill="white"/>
</g>
<defs>
<filter id="filter0_f_1_7262" x="0" y="0" width="1910" height="1910" filterUnits="userSpaceOnUse" color-interpolation-filters="sRGB">
<feFlood flood-opacity="0" result="BackgroundImageFix"/>
<feBlend mode="normal" in="SourceGraphic" in2="BackgroundImageFix" result="shape"/>
<feGaussianBlur stdDeviation="312" result="effect1_foregroundBlur_1_7262"/>
</filter>
</defs>
</svg>
