<svg width="51" height="51" viewBox="0 0 51 51" fill="none" xmlns="http://www.w3.org/2000/svg">
<path d="M2.04699 23.724L17.9419 17.9381L23.7239 2.04702C23.8565 1.68298 24.0979 1.36854 24.4152 1.14635C24.7326 0.924157 25.1106 0.804977 25.4981 0.804977C25.8855 0.804977 26.2635 0.924157 26.5809 1.14635C26.8983 1.36854 27.1396 1.68298 27.2722 2.04702L33.058 17.9419L48.9529 23.724C49.317 23.8565 49.6314 24.0979 49.8536 24.4153C50.0758 24.7326 50.195 25.1107 50.195 25.4981C50.195 25.8855 50.0758 26.2636 49.8536 26.5809C49.6314 26.8983 49.317 27.1397 48.9529 27.2722L33.0542 33.0581L27.2722 48.953C27.1396 49.317 26.8983 49.6315 26.5809 49.8536C26.2635 50.0758 25.8855 50.195 25.4981 50.195C25.1106 50.195 24.7326 50.0758 24.4152 49.8536C24.0979 49.6315 23.8565 49.317 23.7239 48.953L17.9381 33.0543L2.04699 27.2722C1.68295 27.1397 1.36851 26.8983 1.14632 26.5809C0.924126 26.2636 0.804946 25.8855 0.804946 25.4981C0.804946 25.1107 0.924126 24.7326 1.14632 24.4153C1.36851 24.0979 1.68295 23.8565 2.04699 23.724Z" stroke="white" stroke-opacity="0.21" stroke-width="1.59174" stroke-linecap="round" stroke-linejoin="round"/>
</svg>
