<svg width="2864" height="2864" viewBox="0 0 2864 2864" fill="none" xmlns="http://www.w3.org/2000/svg">
<g filter="url(#filter0_f_1_7359)">
<path d="M1432 936.102C1300.48 936.102 1174.35 988.348 1081.35 1081.35C988.348 1174.35 936.102 1300.48 936.102 1432C936.102 1563.52 988.348 1689.65 1081.35 1782.65C1174.35 1875.65 1300.48 1927.9 1432 1927.9C1563.52 1927.9 1689.65 1875.65 1782.65 1782.65C1875.65 1689.65 1927.9 1563.52 1927.9 1432C1927.9 1300.48 1875.65 1174.35 1782.65 1081.35C1689.65 988.348 1563.52 936.102 1432 936.102ZM1707.28 1460.54C1701.18 1468.57 1692.72 1474.49 1683.09 1477.48L1605.2 1503.6C1581.4 1511.74 1559.74 1525.13 1541.82 1542.79C1524.03 1560.6 1510.61 1582.29 1502.64 1606.17L1476.03 1684.06C1472.45 1692.84 1466.6 1700.52 1459.09 1706.32C1451.06 1712.13 1441.43 1715.34 1431.52 1715.51C1421.55 1715.65 1411.83 1712.41 1403.94 1706.32C1395.89 1700.54 1389.81 1692.43 1386.52 1683.09L1360.88 1605.2C1352.91 1581.24 1339.44 1559.49 1321.54 1541.67C1303.65 1523.86 1281.83 1510.49 1257.83 1502.64L1180.42 1476.99C1171.08 1473.7 1162.98 1467.62 1157.2 1459.58C1151.17 1451.65 1147.94 1441.96 1148.01 1432C1148.07 1421.92 1151.29 1412.11 1157.2 1403.94C1162.76 1396.1 1170.75 1390.31 1179.94 1387.49L1257.83 1361.36C1281.91 1353.21 1303.88 1339.83 1322.18 1322.18C1340.08 1304.08 1353.48 1282.02 1361.36 1257.83L1387.49 1181.39C1390.39 1172.24 1395.95 1164.15 1403.46 1158.17C1411.17 1151.65 1420.93 1148.06 1431.03 1148.01C1440.63 1147.84 1450.06 1150.54 1458.13 1155.75C1466.64 1161.04 1473.12 1169.05 1476.51 1178.49L1502.64 1257.35C1510.76 1281.68 1524.31 1303.84 1542.31 1322.18C1560.49 1339.73 1582.28 1353.1 1606.17 1361.36L1684.06 1388.46C1693.32 1391.41 1701.32 1397.37 1706.8 1405.39C1712.45 1413.48 1715.49 1423.1 1715.51 1432.97C1715.46 1442.74 1712.61 1452.32 1707.28 1460.54Z" fill="white"/>
</g>
<defs>
<filter id="filter0_f_1_7359" x="6.10418e-05" y="0" width="2864" height="2864" filterUnits="userSpaceOnUse" color-interpolation-filters="sRGB">
<feFlood flood-opacity="0" result="BackgroundImageFix"/>
<feBlend mode="normal" in="SourceGraphic" in2="BackgroundImageFix" result="shape"/>
<feGaussianBlur stdDeviation="468" result="effect1_foregroundBlur_1_7359"/>
</filter>
</defs>
</svg>
