<svg width="50" height="50" viewBox="0 0 50 50" fill="none" xmlns="http://www.w3.org/2000/svg">
<rect x="0.5" y="0.5" width="49" height="49" rx="24.5" stroke="white" stroke-opacity="0.25"/>
<path d="M18.0999 24.0965C22.3949 22.2619 25.2589 21.0524 26.6919 20.4681C30.7834 18.7996 31.6335 18.5098 32.1877 18.5001C32.3095 18.4981 32.582 18.5277 32.7586 18.6681C32.9076 18.7867 32.9486 18.9469 32.9683 19.0593C32.9879 19.1717 33.0123 19.4278 32.9929 19.6279C32.7712 21.9119 31.8118 27.4546 31.3237 30.0127C31.1172 31.0951 30.7105 31.458 30.3168 31.4936C29.4613 31.5707 28.8116 30.9392 27.9829 30.4067C26.6862 29.5733 25.9537 29.0545 24.695 28.2414C23.2404 27.3016 24.1834 26.7851 25.0124 25.9409C25.2293 25.72 28.999 22.3584 29.0719 22.0534C29.0811 22.0153 29.0895 21.8731 29.0034 21.798C28.9172 21.723 28.7901 21.7486 28.6983 21.7691C28.5683 21.798 26.4968 23.1403 22.4839 25.7961C21.8959 26.192 21.3633 26.3848 20.8862 26.3747C20.3601 26.3636 19.3482 26.0831 18.596 25.8434C17.6733 25.5493 16.94 25.3939 17.0039 24.8945C17.0371 24.6344 17.4025 24.3684 18.0999 24.0965Z" fill="white"/>
</svg>
