<svg width="131" height="131" viewBox="0 0 131 131" fill="none" xmlns="http://www.w3.org/2000/svg">
<path d="M51.8542 85.0629V45.9376C51.855 45.4481 51.9875 44.9678 52.2377 44.5471C52.4879 44.1263 52.8467 43.7806 53.2765 43.5462C53.7062 43.3118 54.1911 43.1973 54.6803 43.2147C55.1696 43.2321 55.6451 43.3808 56.0571 43.6451L86.4928 63.2023C86.8782 63.4492 87.1953 63.7891 87.4149 64.1907C87.6345 64.5922 87.7496 65.0426 87.7496 65.5003C87.7496 65.958 87.6345 66.4083 87.4149 66.8099C87.1953 67.2114 86.8782 67.5513 86.4928 67.7982L56.0571 87.3609C55.6451 87.6252 55.1696 87.7739 54.6803 87.7913C54.1911 87.8087 53.7062 87.6942 53.2765 87.4598C52.8467 87.2254 52.4879 86.8797 52.2377 86.459C51.9875 86.0382 51.855 85.5579 51.8542 85.0684V85.0629Z" fill="white"/>
<path d="M5.45834 65.5004C5.45834 32.341 32.3406 5.4587 65.5 5.4587C98.6594 5.4587 125.542 32.341 125.542 65.5004C125.542 98.6597 98.6594 125.542 65.5 125.542C32.3406 125.542 5.45834 98.6597 5.45834 65.5004ZM65.5 13.6462C51.7474 13.6462 38.5581 19.1094 28.8336 28.8339C19.109 38.5585 13.6458 51.7478 13.6458 65.5004C13.6458 79.253 19.109 92.4423 28.8336 102.167C38.5581 111.891 51.7474 117.355 65.5 117.355C79.2526 117.355 92.4419 111.891 102.166 102.167C111.891 92.4423 117.354 79.253 117.354 65.5004C117.354 51.7478 111.891 38.5585 102.166 28.8339C92.4419 19.1094 79.2526 13.6462 65.5 13.6462Z" fill="white"/>
</svg>
