<svg width="64" height="64" viewBox="0 0 64 64" fill="none" xmlns="http://www.w3.org/2000/svg">
<path d="M2.56877 29.7713L22.5154 22.5106L29.7713 2.56877C29.9376 2.11194 30.2405 1.71735 30.6388 1.43852C31.037 1.15969 31.5114 1.01013 31.9976 1.01013C32.4838 1.01013 32.9582 1.15969 33.3565 1.43852C33.7547 1.71735 34.0576 2.11194 34.224 2.56877L41.4846 22.5154L61.4312 29.7713C61.888 29.9376 62.2826 30.2405 62.5615 30.6388C62.8403 31.037 62.9899 31.5114 62.9899 31.9976C62.9899 32.4838 62.8403 32.9582 62.5615 33.3565C62.2826 33.7547 61.888 34.0576 61.4312 34.224L41.4799 41.4846L34.224 61.4312C34.0576 61.888 33.7547 62.2826 33.3565 62.5615C32.9582 62.8403 32.4838 62.9899 31.9976 62.9899C31.5114 62.9899 31.037 62.8403 30.6388 62.5615C30.2405 62.2826 29.9376 61.888 29.7713 61.4312L22.5106 41.4799L2.56877 34.224C2.11194 34.0576 1.71735 33.7547 1.43852 33.3565C1.15969 32.9582 1.01013 32.4838 1.01013 31.9976C1.01013 31.5114 1.15969 31.037 1.43852 30.6388C1.71735 30.2405 2.11194 29.9376 2.56877 29.7713Z" stroke="white" stroke-opacity="0.21" stroke-width="2" stroke-linecap="round" stroke-linejoin="round"/>
</svg>
