<svg width="31" height="31" viewBox="0 0 31 31" fill="none" xmlns="http://www.w3.org/2000/svg">
<path d="M15.5 0C11.3891 0 7.44666 1.63303 4.53984 4.53984C1.63303 7.44666 0 11.3891 0 15.5C0 19.6109 1.63303 23.5533 4.53984 26.4602C7.44666 29.367 11.3891 31 15.5 31C19.6109 31 23.5533 29.367 26.4602 26.4602C29.367 23.5533 31 19.6109 31 15.5C31 11.3891 29.367 7.44666 26.4602 4.53984C23.5533 1.63303 19.6109 0 15.5 0ZM24.1044 16.3922C23.9137 16.6431 23.6493 16.8281 23.3483 16.9215L20.9137 17.738C20.1697 17.9923 19.4926 18.411 18.9327 18.9629C18.3765 19.5195 17.9572 20.1976 17.7078 20.9439L16.8761 23.3785C16.7642 23.6531 16.5816 23.8931 16.3468 24.0741C16.0958 24.256 15.7949 24.3563 15.4849 24.3615C15.1733 24.366 14.8694 24.2647 14.6229 24.0741C14.3714 23.8936 14.1814 23.6403 14.0785 23.3483L13.2771 20.9137C13.028 20.1648 12.6069 19.4847 12.0475 18.928C11.4882 18.3713 10.8061 17.9534 10.0561 17.7078L7.63659 16.9063C7.34462 16.8035 7.09126 16.6134 6.91073 16.362C6.72223 16.1143 6.62118 15.8112 6.62341 15.5C6.62545 15.1848 6.7259 14.8782 6.91073 14.6229C7.0844 14.3778 7.3343 14.197 7.62146 14.1088L10.0561 13.2922C10.8087 13.0373 11.4955 12.619 12.0673 12.0673C12.6268 11.5018 13.0457 10.8122 13.2922 10.0561L14.1088 7.66683C14.1994 7.38072 14.3731 7.12805 14.6078 6.94098C14.849 6.73731 15.1541 6.62491 15.4698 6.62341C15.7698 6.61826 16.0646 6.70248 16.3166 6.86537C16.5827 7.0308 16.7852 7.28123 16.8912 7.5761L17.7078 10.041C17.9619 10.8016 18.3853 11.4942 18.9478 12.0673C19.5161 12.616 20.1973 13.034 20.9439 13.2922L23.3785 14.139C23.6679 14.2312 23.918 14.4175 24.0893 14.6683C24.2658 14.9211 24.3607 15.2219 24.3615 15.5302C24.36 15.8357 24.2707 16.1351 24.1044 16.3922Z" fill="white"/>
</svg>
