<svg width="252" height="252" viewBox="0 0 252 252" fill="none" xmlns="http://www.w3.org/2000/svg">
<path d="M7.51316 117.027L87.8158 87.7968L117.027 7.51328C117.697 5.67413 118.916 4.08553 120.52 2.963C122.123 1.84047 124.033 1.23836 125.99 1.23836C127.948 1.23836 129.858 1.84047 131.461 2.963C133.064 4.08553 134.284 5.67413 134.953 7.51328L164.184 87.816L244.487 117.027C246.326 117.697 247.914 118.916 249.037 120.52C250.159 122.123 250.762 124.033 250.762 125.99C250.762 127.948 250.159 129.858 249.037 131.461C247.914 133.064 246.326 134.284 244.487 134.953L164.165 164.184L134.953 244.487C134.284 246.326 133.064 247.915 131.461 249.037C129.858 250.16 127.948 250.762 125.99 250.762C124.033 250.762 122.123 250.16 120.52 249.037C118.916 247.915 117.697 246.326 117.027 244.487L87.7967 164.165L7.51316 134.953C5.67401 134.284 4.0854 133.064 2.96288 131.461C1.84035 129.858 1.23824 127.948 1.23824 125.99C1.23824 124.033 1.84035 122.123 2.96288 120.52C4.0854 118.916 5.67401 117.697 7.51316 117.027Z" stroke="white" stroke-opacity="0.2" stroke-width="2.47243" stroke-linecap="round" stroke-linejoin="round"/>
</svg>
